<?xml version="1.0" encoding="UTF-8" standalone="no"?>
<svg
   xmlns:dc="http://purl.org/dc/elements/1.1/"
   xmlns:cc="http://creativecommons.org/ns#"
   xmlns:rdf="http://www.w3.org/1999/02/22-rdf-syntax-ns#"
   xmlns:svg="http://www.w3.org/2000/svg"
   xmlns="http://www.w3.org/2000/svg"
   xmlns:sodipodi="http://sodipodi.sourceforge.net/DTD/sodipodi-0.dtd"
   xmlns:inkscape="http://www.inkscape.org/namespaces/inkscape"
   width="50mm"
   height="30mm"
   viewBox="0 0 50 30"
   version="1.1"
   id="svg8"
   inkscape:version="1.0.2-2 (e86c870879, 2021-01-15)"
   sodipodi:docname="Cartridge back label V2.svg"
   inkscape:export-filename="J:\Codigo\C++\Vircon32\PhysicalVersions\GamesCommon\Logos and images\Cartridge back label V2.png"
   inkscape:export-xdpi="300"
   inkscape:export-ydpi="300">
  <defs
     id="defs2" />
  <sodipodi:namedview
     id="base"
     pagecolor="#ffffff"
     bordercolor="#666666"
     borderopacity="1.0"
     inkscape:pageopacity="0.0"
     inkscape:pageshadow="2"
     inkscape:zoom="3.959798"
     inkscape:cx="56.542869"
     inkscape:cy="70.410103"
     inkscape:document-units="mm"
     inkscape:current-layer="layer1"
     inkscape:document-rotation="0"
     showgrid="false"
     inkscape:window-width="1920"
     inkscape:window-height="1033"
     inkscape:window-x="-4"
     inkscape:window-y="-4"
     inkscape:window-maximized="1" />
  <metadata
     id="metadata5">
    <rdf:RDF>
      <cc:Work
         rdf:about="">
        <dc:format>image/svg+xml</dc:format>
        <dc:type
           rdf:resource="http://purl.org/dc/dcmitype/StillImage" />
        <dc:title />
      </cc:Work>
    </rdf:RDF>
  </metadata>
  <g
     inkscape:label="Capa 1"
     inkscape:groupmode="layer"
     id="layer1"
     style="opacity:0.994">
    <rect
       style="fill:#bfbfbf;fill-opacity:1;stroke:none;stroke-width:0.2;stroke-linejoin:round;stroke-miterlimit:4;stroke-dasharray:none"
       id="rect1000"
       width="50"
       height="30"
       x="0"
       y="0" />
    <text
       xml:space="preserve"
       style="font-size:1.43px;line-height:125%;font-family:Sans;letter-spacing:0px;word-spacing:0px;fill:#000000;fill-opacity:1;stroke:none;stroke-width:0.264583px;stroke-linecap:butt;stroke-linejoin:miter;stroke-opacity:1"
       x="1.5764111"
       y="7.0934472"
       id="text835"><tspan
         sodipodi:role="line"
         id="tspan833"
         x="1.5764111"
         y="7.0934472"
         style="font-size:1.43px;fill:#000000;fill-opacity:1;stroke:none;stroke-width:0.264583px">● Game cartridge only for use with your Vircon32 system.</tspan></text>
    <text
       xml:space="preserve"
       style="font-size:1.43px;line-height:125%;font-family:Sans;letter-spacing:0px;word-spacing:0px;opacity:0.994;fill:#000000;fill-opacity:1;stroke:none;stroke-width:0.264583px;stroke-linecap:butt;stroke-linejoin:miter;stroke-opacity:1"
       x="1.5764111"
       y="9.5934477"
       id="text835-8"><tspan
         sodipodi:role="line"
         id="tspan833-6"
         x="1.5764111"
         y="9.5934477"
         style="font-size:1.43px;fill:#000000;fill-opacity:1;stroke:none;stroke-width:0.264583px">● Power must be off before inserting or removing a cartridge.</tspan></text>
    <text
       xml:space="preserve"
       style="font-size:1.43px;line-height:125%;font-family:Sans;letter-spacing:0px;word-spacing:0px;opacity:0.994;fill:#000000;fill-opacity:1;stroke:none;stroke-width:0.264583px;stroke-linecap:butt;stroke-linejoin:miter;stroke-opacity:1"
       x="1.5764111"
       y="12.086465"
       id="text835-2"><tspan
         sodipodi:role="line"
         id="tspan833-68"
         x="1.5764111"
         y="12.086465"
         style="font-size:1.43px;fill:#000000;fill-opacity:1;stroke:none;stroke-width:0.264583px">● Keep connectors clean and do not touch them with your hands.</tspan></text>
    <text
       xml:space="preserve"
       style="font-size:1.5px;line-height:125%;font-family:Sans;text-align:center;letter-spacing:0px;word-spacing:0px;text-anchor:middle;opacity:0.994;fill:#000000;fill-opacity:1;stroke:none;stroke-width:0.264583px;stroke-linecap:butt;stroke-linejoin:miter;stroke-opacity:1"
       x="24.969971"
       y="2.461328"
       id="text835-7"><tspan
         sodipodi:role="line"
         id="tspan833-8"
         x="24.969971"
         y="2.461328"
         style="font-style:normal;font-variant:normal;font-weight:bold;font-stretch:normal;font-size:1.5px;font-family:Sans;-inkscape-font-specification:'Sans Bold';text-align:center;text-anchor:middle;fill:#000000;fill-opacity:1;stroke:none;stroke-width:0.264583px">IMPORTANT</tspan></text>
    <path
       style="fill:none;fill-rule:evenodd;stroke:#000000;stroke-width:0.2;stroke-linecap:butt;stroke-linejoin:miter;stroke-miterlimit:4;stroke-dasharray:none;stroke-opacity:1"
       d="M 1.7000002,3.6 H 48.300002"
       id="path909" />
    <path
       style="opacity:0.994;fill:none;fill-rule:evenodd;stroke:#000000;stroke-width:0.2;stroke-linecap:butt;stroke-linejoin:miter;stroke-miterlimit:4;stroke-dasharray:none;stroke-opacity:1"
       d="M 1.7,14.35 H 48.3"
       id="path909-8" />
    <path
       style="opacity:0.994;fill:none;fill-rule:evenodd;stroke:#000000;stroke-width:0.2;stroke-linecap:butt;stroke-linejoin:miter;stroke-miterlimit:4;stroke-dasharray:none;stroke-opacity:1"
       d="M 1.6999999,25.1 H 48.299998"
       id="path909-7" />
    <text
       xml:space="preserve"
       style="font-size:1.43px;line-height:125%;font-family:Sans;letter-spacing:0px;word-spacing:0px;opacity:0.994;fill:#000000;fill-opacity:1;stroke:none;stroke-width:0.264583px;stroke-linecap:butt;stroke-linejoin:miter;stroke-opacity:1"
       x="1.5764111"
       y="17.843447"
       id="text835-3"><tspan
         sodipodi:role="line"
         id="tspan833-1"
         x="1.5764111"
         y="17.843447"
         style="font-size:1.43px;fill:#000000;fill-opacity:1;stroke:none;stroke-width:0.264583px">● Do not attempt to disassemble without proper qualification.</tspan></text>
    <text
       xml:space="preserve"
       style="font-size:1.43px;line-height:125%;font-family:Sans;letter-spacing:0px;word-spacing:0px;opacity:0.994;fill:#000000;fill-opacity:1;stroke:none;stroke-width:0.264583px;stroke-linecap:butt;stroke-linejoin:miter;stroke-opacity:1"
       x="1.5764111"
       y="20.336464"
       id="text835-9"><tspan
         sodipodi:role="line"
         id="tspan833-82"
         x="1.5764111"
         y="20.336464"
         style="font-size:1.43px;fill:#000000;fill-opacity:1;stroke:none;stroke-width:0.264583px">● Do not clean with alcohol, benzene or other solvents.</tspan></text>
    <text
       xml:space="preserve"
       style="font-size:1.43px;line-height:125%;font-family:Sans;letter-spacing:0px;word-spacing:0px;opacity:0.994;fill:#000000;fill-opacity:1;stroke:none;stroke-width:0.264583px;stroke-linecap:butt;stroke-linejoin:miter;stroke-opacity:1"
       x="1.5764111"
       y="22.836464"
       id="text835-5"><tspan
         sodipodi:role="line"
         id="tspan833-86"
         x="1.5764111"
         y="22.836464"
         style="font-size:1.43px;fill:#000000;fill-opacity:1;stroke:none;stroke-width:0.264583px">● Do not expose to water, dust or extreme temperatures.</tspan></text>
    <text
       xml:space="preserve"
       style="font-size:1.2px;line-height:125%;font-family:Sans;letter-spacing:0px;word-spacing:0px;opacity:0.994;fill:#000000;fill-opacity:1;stroke:none;stroke-width:0.264583px;stroke-linecap:butt;stroke-linejoin:miter;stroke-opacity:1"
       x="2.0999999"
       y="26.917578"
       id="text835-79"><tspan
         sodipodi:role="line"
         x="2.0999999"
         y="26.917578"
         style="font-size:1.2px;fill:#000000;fill-opacity:1;stroke:none;stroke-width:0.264583px"
         id="tspan1034">This cartridge design is open and freely available.</tspan></text>
    <path
       style="fill:none;fill-rule:evenodd;stroke:#000000;stroke-width:0.2;stroke-linecap:butt;stroke-linejoin:miter;stroke-miterlimit:4;stroke-dasharray:none;stroke-opacity:1"
       d="m 33.52621,25 v 4"
       id="path1068" />
    <g
       id="g931"
       style="fill:#000000;fill-opacity:1;stroke-width:1.94544"
       transform="matrix(0.13600225,0,0,0.13600225,31.177624,19.225279)">
      <path
         d="M 38.4474,67.35681 H 34.609757 L 31.475288,49.884816 h 3.58736 l 2.216773,13.217218 7.234312,-13.217218 h 3.563525 z"
         style="font-style:oblique;font-weight:bold;font-size:80px;line-height:0.01%;font-family:sans-serif;-inkscape-font-specification:'Arial Bold Oblique';letter-spacing:0px;word-spacing:0px;fill:#000000;fill-opacity:1;stroke:none;stroke-width:1.94544"
         id="path839" />
      <path
         d="m 48.458639,54.252813 h 2.565379 l -0.482684,2.324039 h -2.565379 z m -0.750844,3.611198 h 2.565379 l -1.984368,9.492799 h -2.565379 z"
         style="font-style:normal;font-weight:bold;line-height:0.01%;font-family:sans-serif;-inkscape-font-specification:'Arial Bold Oblique';letter-spacing:0px;word-spacing:0px;fill:#000000;fill-opacity:1;stroke:none;stroke-width:1.94544"
         id="path841" />
      <path
         d="m 52.650844,57.864011 h 2.395549 l -0.384362,1.841354 q 1.340791,-2.064819 2.905046,-2.064819 0.554194,0 1.188836,0.277096 l -0.983248,2.100574 q -0.348606,-0.125142 -0.741904,-0.125142 -0.661457,0 -1.34973,0.500564 -0.679333,0.50056 -1.063692,1.34079 -0.384361,0.831291 -0.759783,2.645826 l -0.625702,2.976556 h -2.565379 z"
         style="font-style:normal;font-weight:bold;line-height:0.01%;font-family:sans-serif;-inkscape-font-specification:'Arial Bold Oblique';letter-spacing:0px;word-spacing:0px;fill:#000000;fill-opacity:1;stroke:none;stroke-width:1.94544"
         id="path843" />
      <path
         d="m 64.369358,63.781368 2.493869,0.402237 q -0.616762,1.662581 -1.823475,2.529627 -1.206712,0.867043 -2.797783,0.867043 -1.814538,0 -2.87823,-1.081571 -1.063695,-1.081571 -1.063695,-2.976556 0,-1.546379 0.643578,-2.922925 0.643582,-1.376543 1.939677,-2.163141 1.296099,-0.795536 2.842478,-0.795536 1.680457,0 2.681581,0.875982 1.001124,0.875986 1.126266,2.306163 l -2.440241,0.259219 q -0.08939,-0.795538 -0.491623,-1.17096 -0.393298,-0.375419 -1.036876,-0.375419 -0.741905,0 -1.385486,0.554192 -0.643578,0.554195 -0.992184,1.662581 -0.339667,1.09945 -0.339667,2.064819 0,0.84023 0.411174,1.296099 0.411177,0.455868 1.02794,0.455868 0.616765,0 1.188836,-0.446932 0.572071,-0.446929 0.893861,-1.34079 z"
         style="font-style:normal;font-weight:bold;line-height:0.01%;font-family:sans-serif;-inkscape-font-specification:'Arial Bold Oblique';letter-spacing:0px;word-spacing:0px;fill:#000000;fill-opacity:1;stroke:none;stroke-width:1.94544"
         id="path845" />
      <path
         d="m 68.490056,63.414885 q 0,-2.636889 1.483808,-4.201144 1.492745,-1.573195 3.915109,-1.573195 2.100571,0 3.280468,1.162018 1.179897,1.153081 1.179897,3.110634 0,2.306162 -1.474872,3.986619 -1.474869,1.680458 -3.950861,1.680458 -1.340794,0 -2.37767,-0.536316 -1.036879,-0.536316 -1.546379,-1.519563 -0.5095,-0.983245 -0.5095,-2.109511 z m 7.311779,-1.832414 q 0,-0.911738 -0.536316,-1.456993 -0.527379,-0.554194 -1.367609,-0.554194 -0.831288,0 -1.474869,0.518439 -0.643578,0.5095 -1.001124,1.492748 -0.357542,0.974308 -0.357542,1.796659 0,1.019003 0.554191,1.61789 0.554195,0.598886 1.394422,0.598886 1.054758,0 1.769847,-0.902801 1.019,-1.27822 1.019,-3.110634 z"
         style="font-style:normal;font-weight:bold;line-height:0.01%;font-family:sans-serif;-inkscape-font-specification:'Arial Bold Oblique';letter-spacing:0px;word-spacing:0px;fill:#000000;fill-opacity:1;stroke:none;stroke-width:1.94544"
         id="path847" />
      <path
         d="m 81.316954,57.864011 h 2.431301 l -0.25028,1.233528 q 0.911737,-0.786599 1.698333,-1.117326 0.795538,-0.339667 1.671521,-0.339667 1.170957,0 1.841354,0.670394 0.679333,0.670397 0.679333,1.778783 0,0.500564 -0.294975,1.894985 l -1.117326,5.372102 h -2.565379 l 1.126265,-5.389978 q 0.250281,-1.206712 0.250281,-1.439116 0,-0.491624 -0.294975,-0.76872 -0.286036,-0.286035 -0.804475,-0.286035 -0.563131,0 -1.251404,0.473744 -0.688273,0.473748 -1.081571,1.251405 -0.286035,0.554194 -0.643581,2.261467 l -0.813412,3.897233 h -2.565382 z"
         style="font-style:normal;font-weight:bold;line-height:0.01%;font-family:sans-serif;-inkscape-font-specification:'Arial Bold Oblique';letter-spacing:0px;word-spacing:0px;fill:#000000;fill-opacity:1;stroke:none;stroke-width:1.94544"
         id="path849" />
      <path
         d="m 90.985545,62.792161 3.27749,-0.393298 q 0.202608,1.394422 0.727006,1.930741 0.536318,0.536315 1.418259,0.536315 1.16798,0 1.930741,-0.786599 0.774678,-0.786595 0.774678,-2.014165 0,-1.072631 -0.619743,-1.692374 -0.619743,-0.631664 -1.66854,-0.631664 -0.262201,0 -0.548236,0.04767 l 0.595909,-2.848433 q 0.178773,0.02383 0.345625,0.02383 1.370587,0 2.085675,-0.691251 0.715091,-0.703171 0.715091,-1.894985 0,-0.846189 -0.488645,-1.334832 -0.476726,-0.488643 -1.263325,-0.488643 -0.738923,0 -1.322914,0.548233 -0.583988,0.536315 -0.929614,1.847312 l -3.122554,-0.619743 q 0.595908,-1.93074 1.656622,-2.967616 1.60895,-1.54936 3.956823,-1.54936 2.407467,0 3.658867,1.346749 1.25141,1.334832 1.25141,3.205982 0,1.358667 -0.79852,2.455136 -0.79851,1.096469 -2.19294,1.60895 1.10839,0.583988 1.63279,1.513605 0.5244,0.929613 0.5244,1.942654 0,1.930741 -1.37059,3.551608 -1.871145,2.216773 -4.826844,2.216773 -2.216776,0 -3.658871,-1.263322 -1.430177,-1.275242 -1.74005,-3.59928 z"
         style="font-style:oblique;font-weight:bold;font-size:80px;line-height:0.01%;font-family:sans-serif;-inkscape-font-specification:'Arial Bold Oblique';letter-spacing:0px;word-spacing:0px;fill:#000000;fill-opacity:1;stroke:none;stroke-width:1.94544"
         id="path851" />
      <path
         d="m 108.54812,55.331406 -3.349,-0.500563 q 0.40522,-2.431301 1.88307,-3.71846 1.48977,-1.299077 3.71846,-1.299077 2.44322,0 3.83764,1.322914 1.39442,1.322915 1.39442,3.360915 0,1.036879 -0.42905,2.085675 -0.42905,1.036879 -1.40634,2.181021 -0.70317,0.810433 -2.3002,2.3002 -1.59703,1.47785 -2.12143,2.026086 -0.51248,0.536316 -0.98921,1.144142 h 6.05442 l -0.64358,3.122551 h -10.61907 q 0.16686,-1.287159 0.75085,-2.443218 0.5959,-1.16798 1.47785,-2.169103 0.88194,-1.001124 3.22981,-3.229814 1.76389,-1.692378 2.22869,-2.204859 0.83428,-0.929613 1.14415,-1.608947 0.30987,-0.679336 0.30987,-1.227569 0,-0.881944 -0.5244,-1.430177 -0.51248,-0.548236 -1.311,-0.548236 -0.81043,0 -1.41825,0.619743 -0.60783,0.607826 -0.9177,2.216776 z"
         style="font-style:oblique;font-weight:bold;font-size:80px;line-height:0.01%;font-family:sans-serif;-inkscape-font-specification:'Arial Bold Oblique';letter-spacing:0px;word-spacing:0px;fill:#000000;fill-opacity:1;stroke:none;stroke-width:1.94544"
         id="path853" />
    </g>
    <text
       xml:space="preserve"
       style="font-size:1.2px;line-height:125%;font-family:Sans;letter-spacing:0px;word-spacing:0px;opacity:0.994;fill:#000000;fill-opacity:1;stroke:none;stroke-width:0.264583px;stroke-linecap:butt;stroke-linejoin:miter;stroke-opacity:1"
       x="2.1021485"
       y="28.611719"
       id="text835-79-6"><tspan
         sodipodi:role="line"
         x="2.1021485"
         y="28.611719"
         style="font-size:1.2px;fill:#000000;fill-opacity:1;stroke:none;stroke-width:0.264583px"
         id="tspan1034-2">3D parts and label templates can be downloaded.</tspan></text>
  </g>
</svg>
