<?xml version="1.0" encoding="UTF-8" standalone="no"?>
<svg
   xmlns:dc="http://purl.org/dc/elements/1.1/"
   xmlns:cc="http://creativecommons.org/ns#"
   xmlns:rdf="http://www.w3.org/1999/02/22-rdf-syntax-ns#"
   xmlns:svg="http://www.w3.org/2000/svg"
   xmlns="http://www.w3.org/2000/svg"
   xmlns:sodipodi="http://sodipodi.sourceforge.net/DTD/sodipodi-0.dtd"
   xmlns:inkscape="http://www.inkscape.org/namespaces/inkscape"
   width="27.781248mm"
   height="27.78125mm"
   id="svg2"
   version="1.1"
   inkscape:version="1.0.2-2 (e86c870879, 2021-01-15)"
   sodipodi:docname="Logo Vircon32 compact.svg"
   inkscape:export-filename="J:\Codigo\C++\Vircon32\PhysicalElements\Logos\Logo Vircon32 compact.png"
   inkscape:export-xdpi="299.88574"
   inkscape:export-ydpi="299.88574">
  <defs
     id="defs4" />
  <sodipodi:namedview
     id="base"
     pagecolor="#ffffff"
     bordercolor="#666666"
     borderopacity="1.0"
     inkscape:pageopacity="0.0"
     inkscape:pageshadow="2"
     inkscape:zoom="2.5"
     inkscape:cx="20.998766"
     inkscape:cy="44.56247"
     inkscape:document-units="px"
     inkscape:current-layer="layer1"
     showgrid="false"
     inkscape:window-width="1920"
     inkscape:window-height="1033"
     inkscape:window-x="-4"
     inkscape:window-y="-4"
     inkscape:window-maximized="1"
     inkscape:document-rotation="0"
     fit-margin-top="0"
     fit-margin-left="0"
     fit-margin-right="0"
     fit-margin-bottom="0" />
  <metadata
     id="metadata7">
    <rdf:RDF>
      <cc:Work
         rdf:about="">
        <dc:format>image/svg+xml</dc:format>
        <dc:type
           rdf:resource="http://purl.org/dc/dcmitype/StillImage" />
        <dc:title />
      </cc:Work>
    </rdf:RDF>
  </metadata>
  <g
     inkscape:label="Capa 1"
     inkscape:groupmode="layer"
     id="layer1"
     transform="translate(-203.43036,-185.7607)">
    <rect
       style="fill:#000000;fill-opacity:1;fill-rule:nonzero;stroke:none;stroke-width:1"
       id="rect2994"
       width="104.99999"
       height="105"
       x="203.43036"
       y="185.7607" />
    <g
       id="g870"
       transform="translate(0.02697673,3.3098862)">
      <path
         d="m 231.23807,256.64787 h -11.65793 l -9.52185,-57.26561 h 10.89763 l 6.73408,43.32031 21.97629,-43.32031 h 10.82522 z"
         style="font-style:oblique;font-weight:bold;font-size:80px;line-height:0.01%;font-family:sans-serif;-inkscape-font-specification:'Arial Bold Oblique';letter-spacing:0px;word-spacing:0px;fill:#5fd38d;fill-opacity:1;stroke:none;stroke-width:1"
         id="path838" />
      <path
         d="m 249.17015,245.44536 7.02065,-0.91086 q 0.43401,3.22943 1.55731,4.47152 1.14883,1.2421 3.03801,1.2421 2.50192,0 4.13582,-1.82175 1.65942,-1.82174 1.65942,-4.66474 0,-2.48419 -1.32755,-3.9195 -1.32753,-1.46291 -3.57414,-1.46291 -0.56165,0 -1.17436,0.11042 l 1.27647,-6.59689 q 0.38295,0.0552 0.74037,0.0552 2.93591,0 4.46768,-1.60092 1.53176,-1.62852 1.53176,-4.38873 0,-1.95975 -1.04669,-3.09143 -1.02119,-1.13169 -2.70614,-1.13169 -1.58285,0 -2.8338,1.2697 -1.25094,1.24209 -1.99129,4.27832 l -6.68878,-1.43532 q 1.27648,-4.47151 3.54862,-6.87291 3.4465,-3.58826 8.47583,-3.58826 5.15698,0 7.83759,3.11902 2.68061,3.09145 2.68061,7.42497 0,3.14662 -1.71047,5.68601 -1.7105,2.53939 -4.69743,3.72627 2.37423,1.35251 3.49753,3.50548 1.1233,2.15296 1.1233,4.49914 0,4.47151 -2.9359,8.2254 -4.00815,5.13397 -10.3395,5.13397 -4.74851,0 -7.8376,-2.92581 -3.06356,-2.95344 -3.72732,-8.33583 z"
         style="font-style:oblique;font-weight:bold;font-size:56.6929px;line-height:0.01%;font-family:sans-serif;-inkscape-font-specification:'Arial Bold Oblique';letter-spacing:0px;word-spacing:0px;fill:#80b3ff;fill-opacity:1;stroke:none;stroke-width:0.999998"
         id="path840" />
      <path
         d="m 285.71586,228.35492 -7.17382,-1.17715 q 0.86801,-5.71761 4.03367,-8.74459 3.1912,-3.055 7.96526,-3.055 5.23356,0 8.22053,3.11106 2.98697,3.11104 2.98697,7.90376 0,2.43839 -0.91907,4.90482 -0.91906,2.4384 -3.0125,5.12904 -1.50625,1.90587 -4.92722,5.40931 -3.42097,3.47542 -4.54427,4.76469 -1.09778,1.26123 -2.11896,2.69064 h 12.96906 l -1.37861,7.34321 h -22.74689 q 0.35742,-3.02696 1.60836,-5.74564 1.27649,-2.74669 3.16569,-5.10101 1.88918,-2.35432 6.91851,-7.59547 3.7784,-3.9799 4.77404,-5.18509 1.78709,-2.18615 2.45084,-3.78371 0.66378,-1.59758 0.66378,-2.88685 0,-2.07403 -1.12331,-3.3633 -1.09777,-1.28927 -2.80825,-1.28927 -1.73601,0 -3.03804,1.45744 -1.302,1.42941 -1.96577,5.21311 z"
         style="font-style:oblique;font-weight:bold;font-size:56.6929px;line-height:0.01%;font-family:sans-serif;-inkscape-font-specification:'Arial Bold Oblique';letter-spacing:0px;word-spacing:0px;fill:#80b3ff;fill-opacity:1;stroke:none;stroke-width:1"
         id="path842" />
      <rect
         style="fill:#66ff00;fill-opacity:1;fill-rule:nonzero;stroke:none"
         id="rect2999"
         width="94.09317"
         height="9.8811159"
         x="264.51266"
         y="270.42337"
         transform="matrix(1,0,-0.20211751,0.97936128,0,0)" />
    </g>
  </g>
</svg>
