<?xml version="1.0" encoding="UTF-8" standalone="no"?>
<svg
   xmlns:dc="http://purl.org/dc/elements/1.1/"
   xmlns:cc="http://creativecommons.org/ns#"
   xmlns:rdf="http://www.w3.org/1999/02/22-rdf-syntax-ns#"
   xmlns:svg="http://www.w3.org/2000/svg"
   xmlns="http://www.w3.org/2000/svg"
   xmlns:sodipodi="http://sodipodi.sourceforge.net/DTD/sodipodi-0.dtd"
   xmlns:inkscape="http://www.inkscape.org/namespaces/inkscape"
   width="210mm"
   height="297mm"
   viewBox="0 0 210 297"
   version="1.1"
   id="svg8"
   inkscape:version="1.0.2-2 (e86c870879, 2021-01-15)"
   sodipodi:docname="Logo Carra.svg"
   inkscape:export-filename="J:\Codigo\C++\Vircon32\PhysicalElements\Logos\Logo Carra.png"
   inkscape:export-xdpi="149.92957"
   inkscape:export-ydpi="149.92957">
  <defs
     id="defs2" />
  <sodipodi:namedview
     id="base"
     pagecolor="#ffffff"
     bordercolor="#666666"
     borderopacity="1.0"
     inkscape:pageopacity="0.0"
     inkscape:pageshadow="2"
     inkscape:zoom="0.7"
     inkscape:cx="28.199837"
     inkscape:cy="555.51911"
     inkscape:document-units="mm"
     inkscape:current-layer="layer1"
     inkscape:document-rotation="0"
     showgrid="false"
     inkscape:window-width="1920"
     inkscape:window-height="1033"
     inkscape:window-x="-4"
     inkscape:window-y="-4"
     inkscape:window-maximized="1" />
  <metadata
     id="metadata5">
    <rdf:RDF>
      <cc:Work
         rdf:about="">
        <dc:format>image/svg+xml</dc:format>
        <dc:type
           rdf:resource="http://purl.org/dc/dcmitype/StillImage" />
        <dc:title />
      </cc:Work>
    </rdf:RDF>
  </metadata>
  <g
     inkscape:label="Capa 1"
     inkscape:groupmode="layer"
     id="layer1">
    <rect
       style="fill:#a0ffff;fill-opacity:1;stroke:none;stroke-width:0.865;stroke-linejoin:round"
       id="rect835"
       width="79.18602"
       height="31.692606"
       x="61.043156"
       y="140.28654"
       ry="19.465769"
       rx="19.465769" />
    <rect
       style="fill:#00b4ff;fill-opacity:1;stroke-width:0.864999;stroke-linejoin:round"
       id="rect868"
       width="39.957748"
       height="10.241716"
       x="80.697914"
       y="136.82739"
       rx="1.7953891"
       ry="1.7953891" />
    <path
       id="path833-3"
       style="fill:#00b4ff;fill-opacity:1;stroke:none;stroke-width:3.77952;stroke-linejoin:round;stroke-opacity:1"
       d="m 291.24219,530 c -33.49993,0 -60.46875,26.96883 -60.46875,60.46875 0,33.49992 26.96882,60.46875 60.46875,60.46875 h 178.66406 c 33.49992,0 60.46875,-26.96883 60.46875,-60.46875 C 530.375,556.96883 503.40617,530 469.90625,530 h -3.7207 v 0.0879 a 7.2850971,7.2850971 0 0 0 -0.33399,-0.008 7.2850971,7.2850971 0 0 0 -7.28515,7.28515 7.2850971,7.2850971 0 0 0 7.28515,7.28516 7.2850971,7.2850971 0 0 0 0.33399,-0.008 v 0.004 h 3.7207 c 25.38539,0 45.82227,20.43688 45.82227,45.82227 0,25.38535 -20.43688,45.82227 -45.82227,45.82227 H 291.24219 c -25.38537,0 -45.82227,-20.43692 -45.82227,-45.82227 0,-25.38539 20.4369,-45.82227 45.82227,-45.82227 h 3.72265 v -0.0137 a 7.2850971,7.2850971 0 0 0 0.48243,0.0156 7.2850971,7.2850971 0 0 0 7.28515,-7.28516 7.2850971,7.2850971 0 0 0 -7.28515,-7.28516 7.2850971,7.2850971 0 0 0 -0.48243,0.0156 V 530 Z"
       transform="scale(0.26458333)" />
    <text
       xml:space="preserve"
       style="font-size:17px;line-height:125%;font-family:Sans;letter-spacing:0px;word-spacing:0px;fill:#005aff;fill-opacity:1;stroke:none;stroke-width:0.865;stroke-linecap:butt;stroke-linejoin:miter;stroke-miterlimit:4;stroke-dasharray:none;stroke-opacity:1"
       x="69.547623"
       y="162.0006"
       id="text866"><tspan
         sodipodi:role="line"
         id="tspan864"
         x="69.547623"
         y="162.0006"
         style="font-style:normal;font-variant:normal;font-weight:bold;font-stretch:normal;font-size:17px;font-family:Arial;-inkscape-font-specification:'Arial Bold';fill:#005aff;fill-opacity:1;stroke:none;stroke-width:0.865;stroke-miterlimit:4;stroke-dasharray:none;stroke-opacity:1">CARRA</tspan></text>
    <text
       xml:space="preserve"
       style="font-size:4.99999px;line-height:125%;font-family:Sans;letter-spacing:0px;word-spacing:0px;fill:#beffff;fill-opacity:1;stroke:none;stroke-width:0.264583px;stroke-linecap:butt;stroke-linejoin:miter;stroke-opacity:1"
       x="82.398811"
       y="144.95387"
       id="text870"><tspan
         sodipodi:role="line"
         id="tspan868"
         x="82.398811"
         y="144.95387"
         style="font-size:8px;fill:#beffff;fill-opacity:1;stroke:none;stroke-width:0.264583px">MADE BY</tspan></text>
    <path
       id="rect835-7"
       style="fill:#0000ff;fill-opacity:1;stroke:none;stroke-width:3.26929;stroke-linejoin:round"
       d="m 291.17383,538.05273 c -28.84189,0 -52.06055,23.21867 -52.06055,52.06055 0,28.84189 23.21866,52.0625 52.06055,52.0625 h 177.96679 c 28.84189,0 52.06055,-23.22061 52.06055,-52.0625 0,-28.84188 -23.21866,-52.06055 -52.06055,-52.06055 h -10.54296 a 7.285097,7.285097 0 0 0 7.2539,6.59766 7.285097,7.285097 0 0 0 0.33399,-0.008 v 0.004 h 3.7207 c 25.38539,0 45.82227,20.43688 45.82227,45.82227 0,25.38535 -20.43688,45.82227 -45.82227,45.82227 H 291.24219 c -25.38537,0 -45.82227,-20.43692 -45.82227,-45.82227 0,-25.38539 20.4369,-45.82227 45.82227,-45.82227 h 3.72265 v -0.0137 a 7.285097,7.285097 0 0 0 0.48243,0.0156 7.285097,7.285097 0 0 0 7.25195,-6.59571 z"
       transform="scale(0.26458333)" />
  </g>
</svg>
