<?xml version="1.0" encoding="utf-8"?>
<!DOCTYPE svg PUBLIC "-//W3C//DTD SVG 20010904//EN" "http://www.w3.org/TR/2001/REC-SVG-20010904/DTD/svg10.dtd">
<svg xmlns="http://www.w3.org/2000/svg" xml:space="preserve" xmlns:xlink="http://www.w3.org/1999/xlink" width="115" height="39.714" viewBox="0 0 115 39.714">
<desc></desc>
<rect x="0" y="0" width="115" height="39.714" style="fill:#ffffff;" />
<line fill="none" style="stroke:#000000; stroke-width:1;" x1="10.5" y1="0" x2="10.5" y2="35"/>
<line fill="none" style="stroke:#000000; stroke-width:1;" x1="12.5" y1="0" x2="12.5" y2="35"/>
<line fill="none" style="stroke:#000000; stroke-width:2;" x1="15" y1="0" x2="15" y2="35"/>
<line fill="none" style="stroke:#000000; stroke-width:1;" x1="19.5" y1="0" x2="19.5" y2="35"/>
<line fill="none" style="stroke:#000000; stroke-width:2;" x1="24" y1="0" x2="24" y2="30"/>
<line fill="none" style="stroke:#000000; stroke-width:1;" x1="26.5" y1="0" x2="26.5" y2="30"/>
<line fill="none" style="stroke:#000000; stroke-width:1;" x1="28.5" y1="0" x2="28.5" y2="30"/>
<line fill="none" style="stroke:#000000; stroke-width:2;" x1="33" y1="0" x2="33" y2="30"/>
<line fill="none" style="stroke:#000000; stroke-width:2;" x1="36" y1="0" x2="36" y2="30"/>
<line fill="none" style="stroke:#000000; stroke-width:3;" x1="39.5" y1="0" x2="39.5" y2="30"/>
<line fill="none" style="stroke:#000000; stroke-width:2;" x1="43" y1="0" x2="43" y2="30"/>
<line fill="none" style="stroke:#000000; stroke-width:1;" x1="47.5" y1="0" x2="47.5" y2="30"/>
<line fill="none" style="stroke:#000000; stroke-width:1;" x1="50.5" y1="0" x2="50.5" y2="30"/>
<line fill="none" style="stroke:#000000; stroke-width:2;" x1="54" y1="0" x2="54" y2="30"/>
<line fill="none" style="stroke:#000000; stroke-width:1;" x1="56.5" y1="0" x2="56.5" y2="35"/>
<line fill="none" style="stroke:#000000; stroke-width:1;" x1="58.5" y1="0" x2="58.5" y2="35"/>
<line fill="none" style="stroke:#000000; stroke-width:1;" x1="60.5" y1="0" x2="60.5" y2="30"/>
<line fill="none" style="stroke:#000000; stroke-width:3;" x1="64.5" y1="0" x2="64.5" y2="30"/>
<line fill="none" style="stroke:#000000; stroke-width:1;" x1="67.5" y1="0" x2="67.5" y2="30"/>
<line fill="none" style="stroke:#000000; stroke-width:1;" x1="69.5" y1="0" x2="69.5" y2="30"/>
<line fill="none" style="stroke:#000000; stroke-width:1;" x1="74.5" y1="0" x2="74.5" y2="30"/>
<line fill="none" style="stroke:#000000; stroke-width:1;" x1="79.5" y1="0" x2="79.5" y2="30"/>
<line fill="none" style="stroke:#000000; stroke-width:1;" x1="81.5" y1="0" x2="81.5" y2="30"/>
<line fill="none" style="stroke:#000000; stroke-width:1;" x1="86.5" y1="0" x2="86.5" y2="30"/>
<line fill="none" style="stroke:#000000; stroke-width:1;" x1="88.5" y1="0" x2="88.5" y2="30"/>
<line fill="none" style="stroke:#000000; stroke-width:1;" x1="93.5" y1="0" x2="93.5" y2="30"/>
<line fill="none" style="stroke:#000000; stroke-width:1;" x1="95.5" y1="0" x2="95.5" y2="35"/>
<line fill="none" style="stroke:#000000; stroke-width:1;" x1="97.5" y1="0" x2="97.5" y2="35"/>
<line fill="none" style="stroke:#000000; stroke-width:1;" x1="102.5" y1="0" x2="102.5" y2="35"/>
<line fill="none" style="stroke:#000000; stroke-width:1;" x1="104.5" y1="0" x2="104.5" y2="35"/>
<text x="5" y="37.763" text-anchor="middle" style="font-family: Tahoma; font-size: 9px; stroke: none; fill:#000000;">5</text>
<text x="37.75" y="37.763" text-anchor="middle" style="font-family: Tahoma; font-size: 9px; stroke: none; fill:#000000;">04852</text>
<text x="77.25" y="37.763" text-anchor="middle" style="font-family: Tahoma; font-size: 9px; stroke: none; fill:#000000;">56333</text>
<text x="110" y="37.763" text-anchor="middle" style="font-family: Tahoma; font-size: 9px; stroke: none; fill:#000000;">6</text>
</svg>